<svg xmlns="http://www.w3.org/2000/svg" width="51.87" height="51.87" viewBox="0 0 51.87 51.87">
  <g id="category" transform="translate(0.75 0.75)">
    <path id="Path_8" data-name="Path 8" d="M9.555,22.148h5.038q7.555,0,7.555-7.555V9.555Q22.148,2,14.593,2H9.555Q2,2,2,9.555v5.038Q2,22.148,9.555,22.148Z" transform="translate(-2 -2)" fill="none" stroke="#fff" stroke-linecap="round" stroke-linejoin="round" stroke-miterlimit="10" stroke-width="1.5"/>
    <path id="Path_9" data-name="Path 9" d="M21.555,22.148h5.038q7.555,0,7.555-7.555V9.555Q34.148,2,26.593,2H21.555Q14,2,14,9.555v5.038Q14,22.148,21.555,22.148Z" transform="translate(16.222 -2)" fill="none" stroke="#fff" stroke-linecap="round" stroke-linejoin="round" stroke-miterlimit="10" stroke-width="1.5"/>
    <path id="Path_10" data-name="Path 10" d="M21.555,34.148h5.038q7.555,0,7.555-7.555V21.555Q34.148,14,26.593,14H21.555Q14,14,14,21.555v5.038Q14,34.148,21.555,34.148Z" transform="translate(16.222 16.222)" fill="none" stroke="#fff" stroke-linecap="round" stroke-linejoin="round" stroke-miterlimit="10" stroke-width="1.5"/>
    <path id="Path_11" data-name="Path 11" d="M9.555,34.148h5.038q7.555,0,7.555-7.555V21.555Q22.148,14,14.593,14H9.555Q2,14,2,21.555v5.038Q2,34.148,9.555,34.148Z" transform="translate(-2 16.222)" fill="none" stroke="#fff" stroke-linecap="round" stroke-linejoin="round" stroke-miterlimit="10" stroke-width="1.5"/>
  </g>
</svg>
