<svg xmlns="http://www.w3.org/2000/svg" width="24.439" height="23" viewBox="0 0 24.439 23">
  <path id="g" d="M13.826,25.172a1.246,1.246,0,0,1-1.1-.967l-.678-2.988-3.313-3.68A2.441,2.441,0,0,1,8.11,15.9V4.621a2.443,2.443,0,0,1,2.444-2.444h9.814a2.29,2.29,0,0,1,2.093,1.36l3.668,8.255a3.566,3.566,0,0,1,.31,1.453V14.4A2.451,2.451,0,0,1,24,16.841H15.442A16.266,16.266,0,0,1,16.664,21.9a3.226,3.226,0,0,1-2.313,3.21A1.211,1.211,0,0,1,13.826,25.172ZM3.833,16.841A1.834,1.834,0,0,1,2,15.008v-11a1.833,1.833,0,0,1,3.666,0v11A1.834,1.834,0,0,1,3.833,16.841Z" transform="translate(-2 -2.177)" fill="#f00000"/>
</svg>
