<svg xmlns="http://www.w3.org/2000/svg" width="37.349" height="36.733" viewBox="0 0 37.349 36.733">
  <g id="gallery" transform="translate(-0.5 -0.5)">
    <path id="Path_261" data-name="Path 261" d="M13.807,35.733h10.12c8.433,0,11.807-3.373,11.807-11.807V13.807C35.733,5.373,32.36,2,23.927,2H13.807C5.373,2,2,5.373,2,13.807v10.12C2,32.36,5.373,35.733,13.807,35.733Z" fill="none" stroke="#007ec8" stroke-linecap="round" stroke-linejoin="round" stroke-width="3"/>
    <path id="Path_262" data-name="Path 262" d="M10.373,12.747A3.373,3.373,0,1,0,7,9.373,3.373,3.373,0,0,0,10.373,12.747Z" transform="translate(3.433 2.747)" fill="none" stroke="#007ec8" stroke-linecap="round" stroke-linejoin="round" stroke-width="3"/>
    <path id="Path_263" data-name="Path 263" d="M2.67,23.724l8.315-5.583a3.8,3.8,0,0,1,4.453.236l.557.489a3.76,3.76,0,0,0,4.756,0l7.017-6.021a3.76,3.76,0,0,1,4.756,0l2.749,2.361" transform="translate(0.46 6.865)" fill="none" stroke="#007ec8" stroke-linecap="round" stroke-linejoin="round" stroke-width="3"/>
  </g>
</svg>
