<svg id="icons8_resume_website_1" xmlns="http://www.w3.org/2000/svg" width="38.972" height="38.972" viewBox="0 0 38.972 38.972">
  <path id="Path_363" data-name="Path 363" d="M41.972,8.33A4.329,4.329,0,0,0,37.642,4H7.33A4.329,4.329,0,0,0,3,8.33V34.312a6.5,6.5,0,0,0,6.5,6.5H35.477a6.5,6.5,0,0,0,6.5-6.5Z" transform="translate(-3 -1.835)" opacity="0.35"/>
  <ellipse id="Ellipse_50" data-name="Ellipse 50" cx="4.708" cy="4.035" rx="4.708" ry="4.035" transform="translate(5.922 17.811)" fill="#006498"/>
  <path id="Path_364" data-name="Path 364" d="M14.983,22.5H8.007A3.008,3.008,0,0,1,5,19.488v-.483A3.007,3.007,0,0,1,8.007,16h6.978a3.007,3.007,0,0,1,3.005,3.007v.483A3.007,3.007,0,0,1,14.983,22.5Z" transform="translate(-0.67 12.147)" fill="#006498"/>
  <path id="Path_365" data-name="Path 365" d="M35.477,3H9.5A6.5,6.5,0,0,0,3,9.5v6.5H41.972V9.5A6.5,6.5,0,0,0,35.477,3ZM9.5,11.661A2.165,2.165,0,1,1,11.661,9.5,2.166,2.166,0,0,1,9.5,11.661Zm6.5,0A2.165,2.165,0,1,1,18.156,9.5,2.166,2.166,0,0,1,15.991,11.661Zm19.486,0H24.651a2.165,2.165,0,0,1,0-4.33H35.477a2.165,2.165,0,1,1,0,4.33Z" transform="translate(-3 -3)" fill="#006498"/>
  <path id="Path_366" data-name="Path 366" d="M23.826,16.33H15.165A2.166,2.166,0,0,1,13,14.165h0A2.166,2.166,0,0,1,15.165,12h8.661a2.166,2.166,0,0,1,2.165,2.165h0A2.166,2.166,0,0,1,23.826,16.33Z" transform="translate(8.651 7.486)" fill="#006498"/>
  <path id="Path_367" data-name="Path 367" d="M23.826,20.33H15.165A2.166,2.166,0,0,1,13,18.165h0A2.166,2.166,0,0,1,15.165,16h8.661a2.166,2.166,0,0,1,2.165,2.165h0A2.166,2.166,0,0,1,23.826,20.33Z" transform="translate(8.651 12.147)" fill="#006498"/>
</svg>
