<svg id="icons8_vegetable_bouillion_paste" xmlns="http://www.w3.org/2000/svg" width="31" height="44.286" viewBox="0 0 31 44.286">
  <path id="Path_377" data-name="Path 377" d="M5.312,29.929H35.686A8.708,8.708,0,0,0,36,27.714V10H5V27.714A8.806,8.806,0,0,0,5.312,29.929Z" transform="translate(-5 7.714)" opacity="0.35"/>
  <path id="Path_378" data-name="Path 378" d="M28.83,19.629a10.1,10.1,0,0,0-2.507-3.051,7.346,7.346,0,0,0,.768-1.373,2.43,2.43,0,0,0-.83-2.972,1.728,1.728,0,0,0-2.489.99,2.571,2.571,0,0,1-2.418,1.51c-.817-2.079-2.918-3.2-4.849-2.179L7.664,17.246a1.442,1.442,0,0,0,.1,2.487l9.076,3.612c2.272.9,4.586-.968,4.834-3.729a3.367,3.367,0,0,1,1.3,0,4.425,4.425,0,0,1,2.772,2.469,1.794,1.794,0,0,0,1.546.985,1.649,1.649,0,0,0,1.027-.372A2.489,2.489,0,0,0,28.83,19.629Z" transform="translate(-2.571 10.142)" fill="#006498"/>
  <path id="Path_379" data-name="Path 379" d="M33.786,10.857H7.214A2.215,2.215,0,0,1,5,8.643V6.429A4.427,4.427,0,0,1,9.429,2H31.571A4.427,4.427,0,0,1,36,6.429V8.643A2.215,2.215,0,0,1,33.786,10.857Z" transform="translate(-5 -2)" opacity="0.35"/>
  <path id="Path_380" data-name="Path 380" d="M13.686,25.643H26.972A8.839,8.839,0,0,0,35.517,19H5.141A8.839,8.839,0,0,0,13.686,25.643Z" transform="translate(-4.829 18.643)" fill="#006498"/>
  <path id="Path_381" data-name="Path 381" d="M35.593,12.643a6.655,6.655,0,0,0-4.021-4.037V6H9.429V8.606a6.655,6.655,0,0,0-4.021,4.037A6.558,6.558,0,0,0,5,14.857H36A6.558,6.558,0,0,0,35.593,12.643Z" transform="translate(-5 2.857)" fill="#006498"/>
</svg>
