<svg xmlns="http://www.w3.org/2000/svg" xmlns:xlink="http://www.w3.org/1999/xlink" width="32.978" height="35.363" viewBox="0 0 32.978 35.363">
  <defs>
    <radialGradient id="radial-gradient" cx="0.356" cy="0.399" r="0.277" gradientTransform="matrix(1.813, 0.205, -0.813, 2.091, -0.197, 0.839)" gradientUnits="objectBoundingBox">
      <stop offset="0" stop-color="#f9e5c8"/>
      <stop offset="0.103" stop-color="#f8daba"/>
      <stop offset="0.306" stop-color="#f5d5b5"/>
      <stop offset="0.56" stop-color="#eec7a5"/>
      <stop offset="0.839" stop-color="#e1b08c"/>
      <stop offset="0.999" stop-color="#d8a07a"/>
    </radialGradient>
    <radialGradient id="radial-gradient-2" cx="0.65" cy="0.402" r="0.277" gradientTransform="matrix(-1.825, 0.17, 0.673, 2.106, -353.294, 22.036)" xlink:href="#radial-gradient"/>
    <radialGradient id="radial-gradient-3" cx="0.5" cy="0.5" fx="0.4970111548900604" fy="0.3026547431945801" r="0.402" gradientTransform="translate(-0.252 -0.198) scale(1.26 1.226)" gradientUnits="objectBoundingBox">
      <stop offset="0" stop-color="#f9e5c8"/>
      <stop offset="0.629" stop-color="#f8daba"/>
      <stop offset="0.713" stop-color="#f5d5b5"/>
      <stop offset="0.818" stop-color="#eec7a5"/>
      <stop offset="0.933" stop-color="#e1b08c"/>
      <stop offset="0.999" stop-color="#d8a07a"/>
    </radialGradient>
    <linearGradient id="linear-gradient" y1="0.5" x2="1" y2="0.5" gradientUnits="objectBoundingBox">
      <stop offset="0" stop-color="#c69c6d"/>
      <stop offset="1" stop-color="#754c24"/>
    </linearGradient>
    <radialGradient id="radial-gradient-4" cx="0.5" cy="0.5" r="0.5" gradientTransform="translate(0)" gradientUnits="objectBoundingBox">
      <stop offset="0" stop-color="#1c1911"/>
      <stop offset="0.999" stop-color="#171714"/>
    </radialGradient>
    <linearGradient id="linear-gradient-2" x1="-2.8" x2="-1.8" xlink:href="#linear-gradient"/>
    <radialGradient id="radial-gradient-5" cx="0.5" cy="0.5" r="0.5" gradientTransform="matrix(-1, 0, 0, 1, -656.188, 0)" xlink:href="#radial-gradient-4"/>
    <radialGradient id="radial-gradient-6" cx="0.507" cy="-0.022" r="1.049" gradientTransform="translate(-4.392 -0.044) scale(0.459 0.99)" gradientUnits="objectBoundingBox">
      <stop offset="0.57" stop-opacity="0.2"/>
      <stop offset="1" stop-opacity="0"/>
    </radialGradient>
    <radialGradient id="radial-gradient-7" cx="0.5" cy="0.063" fy="0.13638199865818024" r="1.545" gradientTransform="translate(2.331 -29.631) scale(0.329 0.603)" gradientUnits="objectBoundingBox">
      <stop offset="0.78" stop-color="#fff" stop-opacity="0.4"/>
      <stop offset="1" stop-color="#fff" stop-opacity="0"/>
    </radialGradient>
    <radialGradient id="radial-gradient-8" cx="0.507" cy="-0.036" r="1.955" gradientTransform="translate(0.331 -10.012) scale(0.219 0.804)" xlink:href="#radial-gradient-4"/>
    <radialGradient id="radial-gradient-9" cx="0.498" cy="0.575" r="0.716" gradientTransform="matrix(0.698, 0, 0, -0.81, 0.154, 26.694)" gradientUnits="objectBoundingBox">
      <stop offset="0" stop-color="#5c5050"/>
      <stop offset="0.419" stop-color="#5a4e4e"/>
      <stop offset="0.621" stop-color="#524848"/>
      <stop offset="0.776" stop-color="#453d3d"/>
      <stop offset="0.908" stop-color="#332d2d"/>
      <stop offset="0.998" stop-color="#211e1e"/>
    </radialGradient>
    <radialGradient id="radial-gradient-10" cx="0.5" cy="0.488" r="0.846" gradientTransform="matrix(0.571, -0.011, 0.003, 0.537, 0.213, 0.231)" gradientUnits="objectBoundingBox">
      <stop offset="0" stop-color="#fff"/>
      <stop offset="1" stop-color="#fff" stop-opacity="0"/>
    </radialGradient>
    <radialGradient id="radial-gradient-11" cx="0.505" cy="-0.074" r="0.952" gradientTransform="matrix(0.001, 1, -0.531, 0.003, 0.465, -0.578)" gradientUnits="objectBoundingBox">
      <stop offset="0.415" stop-opacity="0.302"/>
      <stop offset="1" stop-opacity="0"/>
    </radialGradient>
  </defs>
  <g id="icons8_man_light_skin_tone_1" transform="translate(-0.001)">
    <path id="Path_427" data-name="Path 427" d="M37.846,32.382c-.492,0-.764-.192-.694-.618.142-.853.7-6.764.7-6.764,1.408,0,3.273,0,3.273,2.461C41.126,30.2,39.892,32.382,37.846,32.382Z" transform="translate(-8.147 -6.58)" fill="url(#radial-gradient)"/>
    <path id="Path_428" data-name="Path 428" d="M9.281,32.382c.492,0,.764-.192.694-.618-.142-.853-.7-6.764-.7-6.764C7.865,25,6,25,6,27.461,6,30.2,7.234,32.382,9.281,32.382Z" transform="translate(-5.999 -6.58)" fill="url(#radial-gradient-2)"/>
    <path id="Path_429" data-name="Path 429" d="M37.7,21.36c0,2.94-.224,6.775-1.554,9.127-2.593,4.582-9.495,7.439-13.294,7.439-3.949,0-10.775-2.857-13.368-7.439C8.15,28.135,8,24.3,8,21.36c0-.645.02-1.256.059-1.834a15.587,15.587,0,0,1,2.433-7.744c2.663-4.214,7.2-6.116,12.356-6.116,5.126,0,9.644,1.873,12.312,6.048A16.62,16.62,0,0,1,37.7,21.36Z" transform="translate(-6.359 -2.563)" fill="url(#radial-gradient-3)"/>
    <path id="Path_430" data-name="Path 430" d="M12,26.911c-.024.359.057.329.2.509,0,0,1.641,2.158,6.593.681.358-.121.616-.353.579-.631C18.743,22.688,12.82,23.269,12,26.911Z" transform="translate(-6.311 -6.338)" fill="#805b2a"/>
    <path id="Path_431" data-name="Path 431" d="M12.079,27.037a.736.736,0,0,0,0,.661c.353.892,3.188,4.066,7.014.733a.638.638,0,0,0,.26-.737A3.981,3.981,0,0,0,15.693,25,3.82,3.82,0,0,0,12.079,27.037Z" transform="translate(-6.311 -6.538)" fill="#fff"/>
    <circle id="Ellipse_59" data-name="Ellipse 59" cx="2.051" cy="2.051" r="2.051" transform="translate(7.453 18.475)" fill="url(#linear-gradient)"/>
    <circle id="Ellipse_60" data-name="Ellipse 60" cx="1.038" cy="1.038" r="1.038" transform="translate(8.527 19.492)" fill="url(#radial-gradient-4)"/>
    <path id="Path_432" data-name="Path 432" d="M34.378,26.9c.024.361-.057.331-.2.511,0,0-1.641,2.17-6.593.684-.358-.122-.616-.355-.579-.634C27.639,22.649,33.562,23.233,34.378,26.9Z" transform="translate(-7.091 -6.332)" fill="#805b2a"/>
    <path id="Path_433" data-name="Path 433" d="M34.3,27.037a.736.736,0,0,1,0,.661c-.353.892-3.188,4.066-7.014.733a.638.638,0,0,1-.26-.737A3.981,3.981,0,0,1,30.689,25,3.82,3.82,0,0,1,34.3,27.037Z" transform="translate(-7.091 -6.538)" fill="#fff"/>
    <circle id="Ellipse_61" data-name="Ellipse 61" cx="2.051" cy="2.051" r="2.051" transform="translate(21.426 18.475)" fill="url(#linear-gradient-2)"/>
    <circle id="Ellipse_62" data-name="Ellipse 62" cx="1.038" cy="1.038" r="1.038" transform="translate(22.376 19.492)" fill="url(#radial-gradient-5)"/>
    <circle id="Ellipse_63" data-name="Ellipse 63" cx="0.41" cy="0.41" r="0.41" transform="translate(8.27 19.321)" fill="#fff"/>
    <circle id="Ellipse_64" data-name="Ellipse 64" cx="0.41" cy="0.41" r="0.41" transform="translate(22.052 19.321)" fill="#fff"/>
    <path id="Path_434" data-name="Path 434" d="M23.227,40.65c-3.013,0-3.526-1.6-3.526-1.6s.5,3.237,3.526,3.237,3.526-3.237,3.526-3.237S26.24,40.65,23.227,40.65Z" transform="translate(-6.737 -9.388)" fill="url(#radial-gradient-6)"/>
    <path id="Path_435" data-name="Path 435" d="M26.921,38s.048,2.461-3.744,2.461S19.434,38,19.434,38s.832.75,3.744.75S26.921,38,26.921,38Z" transform="translate(-6.69 -9.198)" fill="url(#radial-gradient-7)"/>
    <path id="Path_436" data-name="Path 436" d="M19.693,38c-.2,0-.323.171-.222.309.747,1.022,2.459,1.331,3.707,1.331,1.357,0,2.96-.309,3.707-1.331.1-.138-.018-.309-.222-.309Z" transform="translate(-6.69 -9.198)" fill="url(#radial-gradient-8)"/>
    <path id="Path_437" data-name="Path 437" d="M13.536,21.877a10.377,10.377,0,0,1,1.111-.366c.368-.1.74-.187,1.114-.263a22.078,22.078,0,0,1,2.263-.328h0a.838.838,0,1,1,.156,1.668.876.876,0,0,1-.161,0,20.519,20.519,0,0,0-2.13-.1c-.355,0-.711.016-1.065.043a10.044,10.044,0,0,0-1.032.128l-.03.006a.41.41,0,0,1-.23-.783Z" transform="translate(-6.445 -5.677)" fill="#171515"/>
    <path id="Path_438" data-name="Path 438" d="M32.964,22.656a9.822,9.822,0,0,0-1.032-.128c-.354-.027-.709-.039-1.065-.043a20.508,20.508,0,0,0-2.13.1.837.837,0,1,1-.166-1.667.825.825,0,0,1,.156,0h.01A21.885,21.885,0,0,1,31,21.249c.373.076.745.162,1.114.263a10.377,10.377,0,0,1,1.111.366.41.41,0,0,1-.229.783Z" transform="translate(-7.334 -5.678)" fill="#171515"/>
    <g id="Group_266" data-name="Group 266" transform="translate(0.001 0)">
      <path id="Path_439" data-name="Path 439" d="M37.475,17.639c-.037-.106-.342-.207-.446-.262a12.705,12.705,0,0,1-4.621-3.708.518.518,0,0,0-.521-.14c-9.944,2.941-16.609-.086-19.038-1.588a.471.471,0,0,0-.728.349c-.127,2.724-2.686,4.54-3.842,5.31A.616.616,0,0,0,8,18.062c.16,1.353-.447,6.217-.008,6.217.547-.171.774-.584,1.586-5.473a28.531,28.531,0,0,0,2.37-2.136c1.231-1.378,1.265-2.348,1.545-2.471s3.1,2.124,9.325,2.124a36.321,36.321,0,0,0,8.781-1.084c.328.1.484.779,1.971,2.016A15.167,15.167,0,0,0,35.9,18.7c.784.907,1.194,5.415,1.737,5.582C38,23.807,37.919,18.9,37.475,17.639Z" transform="translate(-6.328 -3.678)" opacity="0.1"/>
      <path id="Path_440" data-name="Path 440" d="M37.478,17.639c-.037-.106-.342-.207-.446-.262a12.7,12.7,0,0,1-4.62-3.708.518.518,0,0,0-.521-.14c-9.942,2.941-16.606-.086-19.035-1.588a.47.47,0,0,0-.728.349C12,15.013,9.442,16.829,8.287,17.6A.616.616,0,0,0,8,18.062c.16,1.353-.323,5.958.115,5.958.4-.162,1.1-5.126,1.194-5.424.074-.226,1.062-.68,2.292-2.058s1.4-2.546,1.752-2.7,3.24,2.19,9.462,2.19a39.4,39.4,0,0,0,8.849-1.037c.414.133.582.828,2.069,2.065a12.556,12.556,0,0,0,2.333,1.371c.785.906,1.282,4.952,1.78,5.3C38.2,23.26,37.921,18.9,37.478,17.639Z" transform="translate(-6.347 -3.678)" opacity="0.1"/>
      <path id="Path_441" data-name="Path 441" d="M37.459,17.639c-.037-.106-.342-.207-.445-.262a12.7,12.7,0,0,1-4.619-3.708.517.517,0,0,0-.521-.14c-9.939,2.941-16.6-.086-19.028-1.588a.47.47,0,0,0-.728.349c-.127,2.724-2.685,4.54-3.84,5.31a.616.616,0,0,0-.283.463c.16,1.353-.465,5.478-.028,5.478.4-.162,1.01-4.82,1.108-5.118.074-.226,1.061-.681,2.292-2.059s1.5-2.755,1.847-2.905,3.37,2.3,9.592,2.3a42.328,42.328,0,0,0,8.92-1c.414.133.762.889,2.249,2.126a11.641,11.641,0,0,0,2.314,1.337c.784.906,1.2,4.807,1.51,5.118C38.154,22.866,37.9,18.9,37.459,17.639Z" transform="translate(-6.325 -3.678)" opacity="0.1"/>
      <path id="Path_442" data-name="Path 442" d="M37.459,17.639c-.037-.106-.342-.207-.445-.262a12.7,12.7,0,0,1-4.619-3.708.517.517,0,0,0-.521-.14c-9.939,2.941-16.6-.086-19.028-1.588a.47.47,0,0,0-.728.349c-.127,2.724-2.685,4.54-3.84,5.31a.616.616,0,0,0-.283.463c.16,1.353-.465,5.478-.028,5.478.4-.162.684-4.955.783-5.253a21.139,21.139,0,0,0,2.433-2.049c1.23-1.378,1.4-2.947,1.749-3.1s4,2.357,9.873,2.357a37.754,37.754,0,0,0,9.028-1.029c.414.133.86.947,2.347,2.184a11.445,11.445,0,0,0,2.347,1.337c.784.906.959,5.038,1.271,5.349C38.154,22.866,37.9,18.9,37.459,17.639Z" transform="translate(-6.325 -3.678)" opacity="0.1"/>
      <path id="Path_443" data-name="Path 443" d="M8.129,21.29a46.014,46.014,0,0,1-.046-5.039c1.068-.68,4.518-3.027,4.043-6.216,1.365.993,8.219,5.165,19.438,1.871,2.493,2.667,2.977,3.132,4.877,4.125a22.268,22.268,0,0,1,.6,5.606,1.925,1.925,0,0,0,.1.848c.377,0,.757-.284,1.018-1.121a43.489,43.489,0,0,0,.8-6.371c.181-5.276-2.034-13.11-16.594-13.11C8.252,1.883,6,9.756,6,15.112a33.159,33.159,0,0,0,.648,6.251,1.192,1.192,0,0,0,1.184,1.122C8.111,22.485,8.129,21.539,8.129,21.29Z" transform="translate(-6 -1.883)" fill="url(#radial-gradient-9)"/>
      <g id="Group_265" data-name="Group 265" transform="translate(0.752 5.854)">
        <path id="Path_444" data-name="Path 444" d="M32.056,10.491c-.462-.146-2.993,1.179-9.386,1.179-6.035,0-10.952-2.936-11.508-2.628s-.345,3.216-1.488,4.971c-1.045,1.6-2.435,2.221-2.631,2.6-.3.589-.075,7.153.873,7.153.242,0,.449-.172.471-.714.1-2.54-.061-5.181.087-5.409a16.6,16.6,0,0,0,2.781-2.419c.941-1.134,1.06-2.815,1.361-2.982.348-.192,4.814,2.5,10.063,2.5,7.241,0,8.825-1.21,9.1-1.07a25.29,25.29,0,0,0,2.232,2.133c1.073.811,2.48,1.294,2.585,1.519.309.657.4,6.44.833,6.44.933,0,.787-7.63.454-8-.276-.307-1.394-.944-2.45-1.835C34.135,12.834,32.548,10.646,32.056,10.491Z" transform="translate(-6.917 -9.019)" fill="#171515" opacity="0.167"/>
        <path id="Path_445" data-name="Path 445" d="M32.064,10.976c-.462-.146-2.974,1.14-9.373,1.14-5.786,0-10.889-2.99-11.4-2.707s-.365,3.019-1.483,4.733c-1.046,1.6-2.453,2.274-2.649,2.655-.3.589-.025,7.037.769,7.037.242,0,.449-.172.472-.714.1-2.54-.061-5.181.087-5.409a16.613,16.613,0,0,0,2.783-2.419c.942-1.134,1.06-2.815,1.362-2.982.348-.192,4.818,2.5,10.071,2.5,7.246,0,8.832-1.21,9.108-1.07a25.3,25.3,0,0,0,2.234,2.133c1.074.811,2.482,1.294,2.587,1.519.309.657.4,6.44.833,6.44.815,0,.663-7.5.329-7.867-.276-.307-1.413-.911-2.485-1.786C34,13.116,32.556,11.132,32.064,10.976Z" transform="translate(-6.939 -9.086)" fill="#171515" opacity="0.333"/>
        <path id="Path_446" data-name="Path 446" d="M32.072,11.462c-.463-.146-2.956,1.1-9.359,1.1-5.536,0-10.825-3.045-11.3-2.786s-.386,2.823-1.477,4.495A17.583,17.583,0,0,1,7.273,16.98c-.3.59.024,6.921.663,6.921.242,0,.45-.172.472-.714.1-2.54-.061-5.181.087-5.409a16.622,16.622,0,0,0,2.786-2.419c.943-1.134,1.061-2.815,1.363-2.982.348-.192,4.822,2.5,10.079,2.5,7.252,0,8.839-1.21,9.115-1.07a25.311,25.311,0,0,0,2.236,2.133c1.075.811,2.484,1.294,2.589,1.519.309.657.4,6.44.834,6.44.7,0,.539-7.363.206-7.733-.276-.307-1.432-.878-2.521-1.737C33.875,13.4,32.564,11.618,32.072,11.462Z" transform="translate(-6.96 -9.153)" fill="#171515" opacity="0.5"/>
        <path id="Path_447" data-name="Path 447" d="M32.079,11.949c-.463-.146-2.937,1.061-9.344,1.061-5.285,0-10.762-3.1-11.194-2.865s-.407,2.626-1.472,4.257a18.836,18.836,0,0,1-2.682,2.762c-.3.589.074,6.8.558,6.8.242,0,.45-.172.472-.714.1-2.54-.061-5.181.087-5.409a16.632,16.632,0,0,0,2.788-2.419c.944-1.134,1.062-2.815,1.364-2.982.348-.192,4.826,2.5,10.087,2.5,7.258,0,8.846-1.21,9.122-1.07A25.323,25.323,0,0,0,34.1,16.008c1.076.811,2.486,1.294,2.591,1.519.31.657.4,6.44.835,6.44.579,0,.415-7.229.081-7.6-.276-.307-1.45-.846-2.557-1.689C33.744,13.678,32.572,12.1,32.079,11.949Z" transform="translate(-6.982 -9.22)" fill="#171515" opacity="0.667"/>
        <path id="Path_448" data-name="Path 448" d="M32.086,12.434c-.463-.146-2.917,1.022-9.33,1.022-5.035,0-10.7-3.153-11.088-2.945s-.427,2.43-1.466,4.02a20.192,20.192,0,0,1-2.7,2.815c-.3.589.123,6.687.452,6.687.242,0,.451-.172.473-.714.1-2.54-.061-5.181.087-5.409a16.642,16.642,0,0,0,2.79-2.419c.944-1.134,1.063-2.815,1.365-2.982.349-.192,4.83,2.5,10.1,2.5,7.264,0,8.853-1.21,9.129-1.07a25.335,25.335,0,0,0,2.24,2.133c1.077.811,2.487,1.294,2.593,1.519.31.657.4,6.44.835,6.44.46,0,.29-7.1-.043-7.466-.277-.307-1.469-.813-2.592-1.64C33.613,13.959,32.579,12.589,32.086,12.434Z" transform="translate(-7.004 -9.286)" fill="#171515" opacity="0.833"/>
        <path id="Path_449" data-name="Path 449" d="M32.093,12.921c-.464-.146-2.9.983-9.316.983-4.783,0-10.634-3.208-10.982-3.023s-.449,2.233-1.46,3.782a21.576,21.576,0,0,1-2.717,2.868c-.3.588.173,6.57.347,6.57.243,0,.451-.172.473-.714.1-2.54-.061-5.181.087-5.409a16.652,16.652,0,0,0,2.792-2.419c.945-1.134,1.064-2.815,1.366-2.982.349-.192,4.833,2.5,10.1,2.5,7.269,0,8.86-1.21,9.136-1.07a25.346,25.346,0,0,0,2.241,2.133c1.078.811,2.489,1.294,2.595,1.519.31.657.4,6.44.836,6.44.342,0,.167-6.962-.168-7.332-.277-.307-1.487-.78-2.627-1.591C33.481,14.241,32.586,13.076,32.093,12.921Z" transform="translate(-7.025 -9.353)" fill="#171515"/>
      </g>
    </g>
    <g id="Group_267" data-name="Group 267" transform="translate(13.619 22.456)">
      <ellipse id="Ellipse_65" data-name="Ellipse 65" cx="2.871" cy="1.64" rx="2.871" ry="1.64" fill="url(#radial-gradient-10)"/>
      <path id="Path_450" data-name="Path 450" d="M25.678,33.224a4.395,4.395,0,0,1-4.518,0c-.237-.121-.394-.064-.394.162a2.724,2.724,0,0,0,5.305,0C26.071,33.16,25.915,33.1,25.678,33.224Z" transform="translate(-20.548 -30.568)" fill="url(#radial-gradient-11)"/>
    </g>
  </g>
</svg>
