<svg id="icons8_logout" xmlns="http://www.w3.org/2000/svg" width="36.824" height="40.198" viewBox="0 0 36.824 40.198">
  <path id="Path_384" data-name="Path 384" d="M36.159,8.03V36.169a6.029,6.029,0,0,1-6.03,6.03H10.03A6.029,6.029,0,0,1,4,36.169V8.03A6.029,6.029,0,0,1,10.03,2h20.1A6.029,6.029,0,0,1,36.159,8.03Z" transform="translate(-4 -2)" opacity="0.35"/>
  <path id="Path_385" data-name="Path 385" d="M27.089,10H13.02a4.02,4.02,0,1,0,0,8.04H27.089Z" transform="translate(1.05 6.079)" fill="#006498"/>
  <path id="Path_386" data-name="Path 386" d="M16.579,25.352A1.743,1.743,0,0,0,19.55,26.59l7.825-7.75a2.522,2.522,0,0,0,0-3.582L19.55,7.508a1.744,1.744,0,0,0-2.971,1.238Z" transform="translate(8.704 3.05)" fill="#006498"/>
</svg>
