<svg xmlns="http://www.w3.org/2000/svg" width="49.125" height="44.474" viewBox="0 0 49.125 44.474">
  <path id="icons8_add_to_shopping_basket" d="M27.536,4.979a1.755,1.755,0,0,0-1.727,1.78V13.05L23.54,10.781a1.755,1.755,0,1,0-2.481,2.481l5.264,5.263a1.755,1.755,0,0,0,2.481,0l5.264-5.264a1.755,1.755,0,1,0-2.481-2.481L29.318,13.05V6.758a1.755,1.755,0,0,0-1.782-1.78ZM45.683,9.651a1.755,1.755,0,0,0-1.439.829l-7.1,10.9H17.989l-7.082-10.9a1.754,1.754,0,1,0-2.943,1.91L13.8,21.38H7.1a4.133,4.133,0,0,0-4.023,4.859L6.317,43.273a7.622,7.622,0,0,0,7.471,6.18H41.342a7.62,7.62,0,0,0,7.468-6.18l3.246-17.032v0a4.134,4.134,0,0,0-4.026-4.859h-6.7l5.855-8.985a1.755,1.755,0,0,0-1.5-2.744ZM7.1,24.889h9.691a1.755,1.755,0,0,0,.516,0H37.812a1.755,1.755,0,0,0,.53,0h9.689a.556.556,0,0,1,.578.7L45.363,42.617a4.074,4.074,0,0,1-4.021,3.326H13.788a4.076,4.076,0,0,1-4.023-3.326L6.52,25.583A.553.553,0,0,1,7.1,24.889ZM15.3,29.542a1.755,1.755,0,0,0-1.773,1.905l.585,8.188a1.755,1.755,0,1,0,3.5-.251L17.032,31.2A1.755,1.755,0,0,0,15.3,29.542Zm8.138,0a1.755,1.755,0,0,0-1.727,1.78V39.51a1.755,1.755,0,1,0,3.509,0V31.322a1.755,1.755,0,0,0-1.782-1.78Zm8.188,0a1.755,1.755,0,0,0-1.727,1.78V39.51a1.755,1.755,0,1,0,3.509,0V31.322a1.755,1.755,0,0,0-1.782-1.78Zm8.14,0A1.755,1.755,0,0,0,38.1,31.2l-.585,8.188a1.755,1.755,0,1,0,3.5.251l.585-8.188a1.755,1.755,0,0,0-1.825-1.9Z" transform="translate(-3.002 -4.978)" fill="#fff"/>
</svg>
