<svg xmlns="http://www.w3.org/2000/svg" width="33.4" height="41.75" viewBox="0 0 33.4 41.75">
  <g id="icons8_flip_chart" transform="translate(0 0)">
    <path id="Path_368" data-name="Path 368" d="M5,10.263V37.4a4.174,4.174,0,0,0,4.175,4.175H30.05a6.262,6.262,0,0,0,6.263-6.263V10.263A6.262,6.262,0,0,0,30.05,4H11.263A6.262,6.262,0,0,0,5,10.263Z" transform="translate(-2.912 0.175)" opacity="0.35"/>
    <path id="Path_369" data-name="Path 369" d="M24.875,22.263a6.219,6.219,0,0,1,.856-3.161A2.121,2.121,0,0,0,23.817,16H10.263a6.263,6.263,0,1,0,0,12.525H31.138A6.262,6.262,0,0,1,24.875,22.263Z" transform="translate(-4 13.225)" fill="#006498"/>
    <path id="Path_370" data-name="Path 370" d="M11.131,10.35h0A3.132,3.132,0,0,1,8,7.219V5.131A3.132,3.132,0,0,1,11.131,2h0a3.132,3.132,0,0,1,3.131,3.131V7.219A3.132,3.132,0,0,1,11.131,10.35Z" transform="translate(0.35 -2)" fill="#006498"/>
    <path id="Path_371" data-name="Path 371" d="M17.131,10.35h0A3.132,3.132,0,0,1,14,7.219V5.131A3.132,3.132,0,0,1,17.131,2h0a3.132,3.132,0,0,1,3.131,3.131V7.219A3.132,3.132,0,0,1,17.131,10.35Z" transform="translate(6.875 -2)" fill="#006498"/>
    <path id="Path_372" data-name="Path 372" d="M24.7,12.175H10.088A2.088,2.088,0,0,1,8,10.088H8A2.088,2.088,0,0,1,10.088,8H24.7a2.088,2.088,0,0,1,2.088,2.088h0A2.088,2.088,0,0,1,24.7,12.175Z" transform="translate(0.35 4.525)" fill="#006498"/>
    <path id="Path_373" data-name="Path 373" d="M24.7,16.175H10.088A2.088,2.088,0,0,1,8,14.088H8A2.088,2.088,0,0,1,10.088,12H24.7a2.088,2.088,0,0,1,2.088,2.088h0A2.088,2.088,0,0,1,24.7,16.175Z" transform="translate(0.35 8.875)" fill="#006498"/>
  </g>
</svg>
