<svg xmlns="http://www.w3.org/2000/svg" width="24.439" height="23" viewBox="0 0 24.439 23">
  <path id="icons8_facebook_like" d="M13.826,2.183a1.246,1.246,0,0,0-1.1.967L12.05,6.137,8.737,9.817a2.441,2.441,0,0,0-.628,1.635V22.734a2.443,2.443,0,0,0,2.444,2.444h9.814a2.29,2.29,0,0,0,2.093-1.36l3.668-8.255a3.566,3.566,0,0,0,.31-1.453v-1.15a2.451,2.451,0,0,0-2.444-2.444H15.441a16.266,16.266,0,0,0,1.222-5.055,3.226,3.226,0,0,0-2.313-3.21A1.211,1.211,0,0,0,13.826,2.183ZM3.833,10.514A1.834,1.834,0,0,0,2,12.347v11a1.833,1.833,0,0,0,3.666,0v-11A1.834,1.834,0,0,0,3.833,10.514Z" transform="translate(-2 -2.177)" fill="#00ca1a"/>
</svg>
