<svg xmlns="http://www.w3.org/2000/svg" xmlns:xlink="http://www.w3.org/1999/xlink" width="35.363" height="35.799" viewBox="0 0 35.363 35.799">
  <defs>
    <radialGradient id="radial-gradient" cx="0.5" cy="0.232" r="0.894" gradientTransform="translate(0.17 -0.05) scale(0.66 1.214)" gradientUnits="objectBoundingBox">
      <stop offset="0.678" stop-color="#211e1e"/>
      <stop offset="1" stop-color="#5c5050"/>
    </radialGradient>
    <radialGradient id="radial-gradient-2" cx="0.356" cy="0.4" r="0.277" gradientTransform="matrix(1.813, 0.205, -0.813, 2.091, 0.407, 0.024)" gradientUnits="objectBoundingBox">
      <stop offset="0" stop-color="#f9e5c8"/>
      <stop offset="0.103" stop-color="#f8daba"/>
      <stop offset="0.306" stop-color="#f5d5b5"/>
      <stop offset="0.56" stop-color="#eec7a5"/>
      <stop offset="0.839" stop-color="#e1b08c"/>
      <stop offset="0.999" stop-color="#d8a07a"/>
    </radialGradient>
    <radialGradient id="radial-gradient-3" cx="0.651" cy="0.402" r="0.277" gradientTransform="matrix(-1.825, 0.17, 0.673, 2.106, -354.952, 21.28)" xlink:href="#radial-gradient-2"/>
    <radialGradient id="radial-gradient-4" cx="0.5" cy="0.5" fx="0.4969695806503296" fy="0.30940741300582886" r="0.388" gradientTransform="translate(-0.355 -0.211) scale(1.323 1.254)" gradientUnits="objectBoundingBox">
      <stop offset="0" stop-color="#f9e5c8"/>
      <stop offset="0.629" stop-color="#f8daba"/>
      <stop offset="0.713" stop-color="#f5d5b5"/>
      <stop offset="0.818" stop-color="#eec7a5"/>
      <stop offset="0.933" stop-color="#e1b08c"/>
      <stop offset="0.999" stop-color="#d8a07a"/>
    </radialGradient>
    <radialGradient id="radial-gradient-5" cx="0.5" cy="0.5" r="1.625" gradientTransform="translate(0.35 0.303) scale(0.3 0.394)" gradientUnits="objectBoundingBox">
      <stop offset="0" stop-color="#8e2809"/>
      <stop offset="0.155" stop-color="#9d3414"/>
      <stop offset="0.453" stop-color="#b24524"/>
      <stop offset="0.739" stop-color="#c04f2e"/>
      <stop offset="1" stop-color="#c45331"/>
    </radialGradient>
    <linearGradient id="linear-gradient" y1="0.5" x2="1" y2="0.5" gradientUnits="objectBoundingBox">
      <stop offset="0" stop-color="#c69c6d"/>
      <stop offset="1" stop-color="#754c24"/>
    </linearGradient>
    <radialGradient id="radial-gradient-6" cx="0.5" cy="0.5" r="0.5" gradientTransform="translate(0)" gradientUnits="objectBoundingBox">
      <stop offset="0" stop-color="#1c1911"/>
      <stop offset="0.999" stop-color="#171714"/>
    </radialGradient>
    <linearGradient id="linear-gradient-2" x1="-2.8" x2="-1.8" xlink:href="#linear-gradient"/>
    <radialGradient id="radial-gradient-7" cx="0.5" cy="0.5" r="0.5" gradientTransform="matrix(-1, 0, 0, 1, -656.188, 0)" xlink:href="#radial-gradient-6"/>
    <radialGradient id="radial-gradient-8" cx="0.504" cy="0.525" r="0.499" gradientTransform="matrix(-0.008, 1, 0.915, 0.017, -9.331, 9.768)" gradientUnits="objectBoundingBox">
      <stop offset="0" stop-color="#5c5050"/>
      <stop offset="0.419" stop-color="#5a4e4e"/>
      <stop offset="0.621" stop-color="#524848"/>
      <stop offset="0.776" stop-color="#453d3d"/>
      <stop offset="0.908" stop-color="#332d2d"/>
      <stop offset="0.998" stop-color="#211e1e"/>
    </radialGradient>
    <radialGradient id="radial-gradient-9" cx="0.5" cy="0.488" r="0.846" gradientTransform="matrix(0.571, -0.011, 0.003, 0.537, 0.213, 0.231)" gradientUnits="objectBoundingBox">
      <stop offset="0" stop-color="#fff"/>
      <stop offset="1" stop-color="#fff" stop-opacity="0"/>
    </radialGradient>
    <radialGradient id="radial-gradient-10" cx="0.505" cy="-0.074" r="0.952" gradientTransform="matrix(0.001, 1, -0.531, 0.003, 0.465, -0.578)" gradientUnits="objectBoundingBox">
      <stop offset="0.415" stop-opacity="0.302"/>
      <stop offset="1" stop-opacity="0"/>
    </radialGradient>
  </defs>
  <g id="icons8_woman_light_skin_tone" transform="translate(0)">
    <path id="Path_451" data-name="Path 451" d="M38.015,33.657c-2.617-5.825-2.027-9.466-2.336-10.607a16.542,16.542,0,0,1-.013-3.972A38.482,38.482,0,0,0,20.68,16.263,38.482,38.482,0,0,0,5.694,19.078,16.542,16.542,0,0,1,5.68,23.05c-.308,1.141.281,4.782-2.336,10.607-.9,1.625.243,2.288.243,2.288A49.616,49.616,0,0,0,20.681,38.83a49.612,49.612,0,0,0,17.091-2.884S38.918,35.282,38.015,33.657Z" transform="translate(-2.998 -4.659)" fill="url(#radial-gradient)"/>
    <path id="Path_452" data-name="Path 452" d="M38.015,34.3C35.4,28.477,35.987,24.837,35.679,23.7a16.542,16.542,0,0,1-.013-3.972l-2.294.512c-.073.942.112,4.248.136,4.749A20.527,20.527,0,0,0,35.085,33.9c.387.86.227,1.151.122,1.246-.806.31-5.384,2.162-14.527,2.162S6.96,35.454,6.154,35.144c-.106-.094-.266-.386.122-1.246a20.539,20.539,0,0,0,1.577-8.914c.024-.5.21-3.807.136-4.749l-2.294-.512A16.542,16.542,0,0,1,5.681,23.7c-.308,1.141.281,4.782-2.336,10.607-.9,1.625.243,2.288.243,2.288a49.62,49.62,0,0,0,17.092,2.884,49.612,49.612,0,0,0,17.091-2.884S38.918,35.927,38.015,34.3Z" transform="translate(-2.998 -5.303)" fill="#171515" opacity="0.167"/>
    <path id="Path_453" data-name="Path 453" d="M38.015,34.3C35.4,28.477,35.988,24.837,35.679,23.7a16.542,16.542,0,0,1-.013-3.972l-2.013.512c-.073.942.123,4.258.147,4.76a21.773,21.773,0,0,0,1.717,9.049c.387.86.227,1.151.122,1.246-.806.31-5.815,2.287-14.958,2.287S6.529,35.6,5.723,35.289c-.106-.094-.266-.386.122-1.246a21.774,21.774,0,0,0,1.717-9.049c.024-.5.221-3.817.147-4.76L5.7,19.723A16.542,16.542,0,0,1,5.682,23.7c-.308,1.141.281,4.782-2.336,10.607-.9,1.625.243,2.288.243,2.288a49.6,49.6,0,0,0,17.091,2.885,49.612,49.612,0,0,0,17.091-2.884S38.918,35.927,38.015,34.3Z" transform="translate(-2.998 -5.303)" fill="#171515" opacity="0.333"/>
    <path id="Path_454" data-name="Path 454" d="M38.015,34.3C35.4,28.477,35.988,24.837,35.679,23.7a16.542,16.542,0,0,1-.013-3.972l-1.733.512c-.073.942.133,4.268.157,4.769a23.084,23.084,0,0,0,1.857,9.185c.387.86.227,1.151.122,1.246-.806.311-6.246,2.413-15.389,2.413S6.1,35.745,5.292,35.435c-.106-.094-.266-.386.122-1.246A23.084,23.084,0,0,0,7.271,25c.024-.5.231-3.827.157-4.769L5.7,19.724A16.542,16.542,0,0,1,5.682,23.7c-.308,1.141.281,4.782-2.336,10.607-.9,1.625.243,2.288.243,2.288a49.612,49.612,0,0,0,17.091,2.884,49.612,49.612,0,0,0,17.091-2.884S38.918,35.927,38.015,34.3Z" transform="translate(-2.998 -5.303)" fill="#171515" opacity="0.5"/>
    <path id="Path_455" data-name="Path 455" d="M38.015,34.3C35.4,28.477,35.987,24.837,35.679,23.7a16.542,16.542,0,0,1-.013-3.972l-1.452.512c-.073.942.143,4.278.168,4.779a24.45,24.45,0,0,0,2,9.321c.387.86.227,1.151.122,1.246A45.3,45.3,0,0,1,20.68,38.119,45.283,45.283,0,0,1,4.859,35.58c-.106-.094-.266-.386.122-1.246a24.464,24.464,0,0,0,2-9.321c.024-.5.242-3.837.168-4.779l-1.452-.512A16.542,16.542,0,0,1,5.68,23.7c-.308,1.141.281,4.782-2.336,10.607-.9,1.625.243,2.288.243,2.288a49.616,49.616,0,0,0,17.092,2.885,49.612,49.612,0,0,0,17.091-2.884S38.918,35.927,38.015,34.3Z" transform="translate(-2.998 -5.303)" fill="#171515" opacity="0.667"/>
    <path id="Path_456" data-name="Path 456" d="M38.015,34.3C35.4,28.477,35.988,24.837,35.679,23.7a16.542,16.542,0,0,1-.013-3.972l-1.171.512c-.073.942.154,4.289.178,4.79a25.909,25.909,0,0,0,2.138,9.456c.387.86.227,1.151.122,1.246A47.48,47.48,0,0,1,20.681,38.39,47.491,47.491,0,0,1,4.429,35.727c-.106-.094-.266-.386.122-1.246a25.909,25.909,0,0,0,2.138-9.456c.024-.5.252-3.848.178-4.79L5.7,19.724A16.542,16.542,0,0,1,5.682,23.7c-.308,1.141.281,4.782-2.336,10.607-.9,1.625.243,2.288.243,2.288a49.612,49.612,0,0,0,17.091,2.884,49.612,49.612,0,0,0,17.091-2.884S38.918,35.927,38.015,34.3Z" transform="translate(-2.998 -5.303)" fill="#171515" opacity="0.833"/>
    <path id="Path_457" data-name="Path 457" d="M38.015,34.3C35.4,28.477,35.988,24.837,35.679,23.7a16.542,16.542,0,0,1-.013-3.972l-.891.512c-.073.942.164,4.3.189,4.8a27.438,27.438,0,0,0,2.278,9.592c.387.86.227,1.151.122,1.246a49.679,49.679,0,0,1-16.683,2.79A49.712,49.712,0,0,1,4,35.872c-.106-.094-.266-.386.122-1.246A27.438,27.438,0,0,0,6.4,25.035c.024-.5.262-3.857.189-4.8L5.7,19.724A16.542,16.542,0,0,1,5.682,23.7c-.308,1.141.281,4.782-2.336,10.607-.9,1.625.243,2.288.243,2.288a49.612,49.612,0,0,0,17.091,2.884,49.612,49.612,0,0,0,17.091-2.884S38.918,35.927,38.015,34.3Z" transform="translate(-2.998 -5.303)" fill="#171515"/>
    <path id="Path_458" data-name="Path 458" d="M36.84,32.322c-.488,0-.758-.19-.688-.613.141-.846.7-6.71.7-6.71,1.4,0,3.246,0,3.246,2.441C40.094,30.158,38.87,32.322,36.84,32.322Z" transform="translate(-7.985 -6.287)" fill="url(#radial-gradient-2)"/>
    <path id="Path_459" data-name="Path 459" d="M10.254,32.322c.488,0,.758-.19.688-.613-.141-.846-.7-6.71-.7-6.71C8.85,25,7,25,7,27.441,7,30.158,8.224,32.322,10.254,32.322Z" transform="translate(-3.744 -6.287)" fill="url(#radial-gradient-3)"/>
    <path id="Path_460" data-name="Path 460" d="M35.226,21.643a20.333,20.333,0,0,1-3.1,9.5c-3.047,4.67-7.747,6.971-10.532,6.971-2.716,0-7.66-2.335-10.567-6.971A20.852,20.852,0,0,1,8,21.643c0-.672.019-5.427.054-6.029.208-3.463,2.7-11.948,13.558-11.948S34.894,11.944,35.142,15.2C35.2,15.927,35.226,20.818,35.226,21.643Z" transform="translate(-3.93 -2.311)" fill="url(#radial-gradient-4)"/>
    <path id="Path_461" data-name="Path 461" d="M19.186,38.346c-.223-.023-.237.165-.093.353a4.765,4.765,0,0,0,3.971,1.742c1.276,0,3.242-.533,4-1.716.128-.2.091-.421-.119-.379-1.969.557-2.88-1-3.918.037C22.018,37.378,21.017,38.712,19.186,38.346Z" transform="translate(-5.385 -8.71)" fill="url(#radial-gradient-5)"/>
    <path id="Path_462" data-name="Path 462" d="M26.07,39.275a8.933,8.933,0,0,0-2.685.159,8.965,8.965,0,0,0-2.685-.159,12.123,12.123,0,0,1,2.685.754A12.172,12.172,0,0,1,26.07,39.275Z" transform="translate(-5.702 -8.942)" fill="#601808"/>
    <path id="Path_463" data-name="Path 463" d="M12,26.888c-.024.356.056.326.2.5,0,0,1.628,2.141,6.54.675.355-.12.611-.35.574-.626C18.689,22.7,12.814,23.275,12,26.888Z" transform="translate(-4.351 -6.106)" fill="#805b2a"/>
    <path id="Path_464" data-name="Path 464" d="M12.078,27.021a.73.73,0,0,0,0,.656c.35.884,3.162,4.033,6.957.727a.633.633,0,0,0,.258-.731A3.949,3.949,0,0,0,15.664,25,3.789,3.789,0,0,0,12.078,27.021Z" transform="translate(-4.351 -6.287)" fill="#fff"/>
    <circle id="Ellipse_66" data-name="Ellipse 66" cx="1.787" cy="1.787" r="1.787" transform="translate(9.503 18.767)" fill="url(#linear-gradient)"/>
    <circle id="Ellipse_67" data-name="Ellipse 67" cx="1.03" cy="1.03" r="1.03" transform="translate(10.324 19.717)" fill="url(#radial-gradient-6)"/>
    <path id="Path_465" data-name="Path 465" d="M34.319,26.872c.024.358-.056.328-.2.507,0,0-1.628,2.153-6.54.679-.355-.121-.611-.352-.574-.629C27.634,22.66,33.509,23.239,34.319,26.872Z" transform="translate(-6.606 -6.101)" fill="#805b2a"/>
    <path id="Path_466" data-name="Path 466" d="M34.244,27.021a.73.73,0,0,1,0,.656c-.35.884-3.162,4.033-6.957.727a.633.633,0,0,1-.258-.731A3.949,3.949,0,0,1,30.659,25,3.789,3.789,0,0,1,34.244,27.021Z" transform="translate(-6.606 -6.287)" fill="#fff"/>
    <ellipse id="Ellipse_68" data-name="Ellipse 68" cx="2.234" cy="1.787" rx="2.234" ry="1.787" transform="translate(21.597 18.767)" fill="url(#linear-gradient-2)"/>
    <circle id="Ellipse_69" data-name="Ellipse 69" cx="1.03" cy="1.03" r="1.03" transform="translate(22.981 19.717)" fill="url(#radial-gradient-7)"/>
    <circle id="Ellipse_70" data-name="Ellipse 70" cx="0.447" cy="0.447" r="0.447" transform="translate(10.4 19.661)" fill="#fff"/>
    <circle id="Ellipse_71" data-name="Ellipse 71" cx="0.447" cy="0.447" r="0.447" transform="translate(22.433 19.661)" fill="#fff"/>
    <path id="Path_467" data-name="Path 467" d="M13.534,21.869a10.293,10.293,0,0,1,1.1-.363c.365-.1.734-.186,1.1-.261a21.9,21.9,0,0,1,2.245-.325h0a.831.831,0,0,1,.155,1.655.869.869,0,0,1-.159,0,20.353,20.353,0,0,0-2.113-.1c-.352,0-.705.015-1.057.042a9.963,9.963,0,0,0-1.024.127l-.03.006a.407.407,0,0,1-.228-.777Z" transform="translate(-4.566 -5.526)" fill="#171515"/>
    <path id="Path_468" data-name="Path 468" d="M32.922,22.642a9.743,9.743,0,0,0-1.024-.127c-.351-.027-.7-.039-1.057-.042a20.344,20.344,0,0,0-2.113.1.831.831,0,0,1-.164-1.653.819.819,0,0,1,.155,0h.01a21.71,21.71,0,0,1,2.245.325c.37.076.739.16,1.1.261a10.294,10.294,0,0,1,1.1.363.407.407,0,0,1-.227.777Z" transform="translate(-6.782 -5.526)" fill="#171515"/>
    <g id="Group_268" data-name="Group 268" transform="translate(3.613 7.54)">
      <path id="Path_469" data-name="Path 469" d="M35.413,21.408c-.284-.928-3.152-3.989-5.1-6.212a1.084,1.084,0,0,0-.976-.34,18.225,18.225,0,0,1-11.714-2.3,1.077,1.077,0,0,0-1.382.2c-2.237,2.689-8.593,9.186-8.589,9.185s.211.063.211.073c4.568-1.551,6.657-4.285,8.951-7.043.334-.4.469-.393.92-.119a17.4,17.4,0,0,0,10.978,2.1,1.04,1.04,0,0,1,.976.34,21.725,21.725,0,0,0,5.824,5.2C35.518,22.487,35.449,21.489,35.413,21.408Z" transform="translate(-7.48 -11.477)" opacity="0.1"/>
      <path id="Path_470" data-name="Path 470" d="M35.34,21.033c-.284-.928-3.152-3.989-5.1-6.212a1.084,1.084,0,0,0-.976-.34,18.225,18.225,0,0,1-11.714-2.3,1.078,1.078,0,0,0-1.383.2c-2.235,2.689-8.591,9.186-8.588,9.185s.289.305.289.316c4.267-1.794,6.488-4.533,8.781-7.292.334-.4.555-.449,1.006-.175a17.668,17.668,0,0,0,11.219,2.155.943.943,0,0,1,.931.329,26.323,26.323,0,0,0,5.626,5.338C35.436,22.229,35.377,21.114,35.34,21.033Z" transform="translate(-7.466 -11.407)" opacity="0.1"/>
      <path id="Path_471" data-name="Path 471" d="M35.268,20.658c-.284-.928-3.152-3.989-5.1-6.212a1.084,1.084,0,0,0-.976-.34,18.226,18.226,0,0,1-11.714-2.3,1.078,1.078,0,0,0-1.383.2c-2.237,2.689-8.593,9.186-8.59,9.185s.366.548.366.559c3.965-2.036,6.318-4.782,8.613-7.54a.735.735,0,0,1,1.092-.232,17.943,17.943,0,0,0,11.46,2.209.854.854,0,0,1,.885.317,33.884,33.884,0,0,0,5.428,5.474C35.355,21.969,35.3,20.739,35.268,20.658Z" transform="translate(-7.452 -11.337)" opacity="0.1"/>
      <path id="Path_472" data-name="Path 472" d="M35.2,20.283c-.284-.928-3.152-3.989-5.1-6.212a1.084,1.084,0,0,0-.976-.34,18.226,18.226,0,0,1-11.714-2.3,1.077,1.077,0,0,0-1.382.2c-2.237,2.689-8.593,9.186-8.59,9.185s.444.792.444.8a34.539,34.539,0,0,0,8.444-7.789.844.844,0,0,1,1.177-.288A18.215,18.215,0,0,0,29.2,15.8a.772.772,0,0,1,.84.306,48.36,48.36,0,0,0,5.23,5.61C35.274,21.71,35.232,20.364,35.2,20.283Z" transform="translate(-7.439 -11.267)" opacity="0.1"/>
    </g>
    <path id="Path_473" data-name="Path 473" d="M7.343,20a81.91,81.91,0,0,0,8.567-8.729,1.046,1.046,0,0,1,1.37-.205,17.649,17.649,0,0,0,11.609,2.345,1.057,1.057,0,0,1,.967.347c1.984,2.335,3.516,5.447,5.172,6.419.9,1.334,1.126-.1,1.255.735C36.76,17.1,37.693,2,21.1,2a7.405,7.405,0,0,0-4.7,1.32,5.263,5.263,0,0,0-2.838.316c-9.143,4.178-7.379,15.492-7.484,17.2A3.626,3.626,0,0,1,7.343,20Z" transform="translate(-3.558 -2)" fill="url(#radial-gradient-8)"/>
    <g id="Group_269" data-name="Group 269" transform="translate(2.461 2.964)">
      <path id="Path_474" data-name="Path 474" d="M34.793,17.974A51.449,51.449,0,0,0,30.84,12.2a1.06,1.06,0,0,0-.97-.334,17.517,17.517,0,0,1-11.1-1.691c-.552-.448-1.558-1.037-1.336-3.556.115-1.3-2-1.317-2.572.076a6.463,6.463,0,0,0-.58,3.637c.119.369-.593,1.05-.644,1.111a51.223,51.223,0,0,1-6.23,6.872C6.165,19.393,6.06,22.9,6.052,23.066A2.98,2.98,0,0,1,7.8,20.141a47.329,47.329,0,0,0,8.177-7.852,1.175,1.175,0,0,1,1.444-.188,17.962,17.962,0,0,0,11.55,2.284,1.409,1.409,0,0,1,1.127.381c1.913,2.267,2.55,3.567,4.02,5.079,1.041,1.045,2.226,2.038,2.357,2.857A13.16,13.16,0,0,0,34.793,17.974Z" transform="translate(-6.028 -5.643)" fill="#171515" opacity="0.167"/>
      <path id="Path_475" data-name="Path 475" d="M34.681,18.345c-1.019-1.524-2.11-3.376-3.981-5.757a1.039,1.039,0,0,0-.97-.334A17.79,17.79,0,0,1,18.518,10.47c-.552-.448-1.536-1.082-1.3-3.731.107-1.194-1.691-1.133-2.167.05a6.76,6.76,0,0,0-.448,3.689c.119.369-.474.941-.524,1a47.872,47.872,0,0,1-6.588,7.21c-1.243,1.063-1.423,4.087-1.441,4.42a3.071,3.071,0,0,1,1.76-2.772,45.661,45.661,0,0,0,8.173-7.99,1.156,1.156,0,0,1,1.429-.19,18.022,18.022,0,0,0,11.567,2.279,1.315,1.315,0,0,1,1.1.371c1.838,2.285,2.494,3.479,4.072,5.195,1.011,1.06,2.2,2.022,2.335,2.852A12.235,12.235,0,0,0,34.681,18.345Z" transform="translate(-6.027 -5.686)" fill="#171515" opacity="0.333"/>
      <path id="Path_476" data-name="Path 476" d="M34.57,18.714c-1.052-1.56-2.2-3.291-4.01-5.738a1.019,1.019,0,0,0-.969-.334,18.069,18.069,0,0,1-11.326-1.876c-.552-.448-1.514-1.127-1.271-3.905.1-1.089-1.378-.95-1.763.023a7.063,7.063,0,0,0-.317,3.741c.119.369-.355.832-.4.894a45.5,45.5,0,0,1-6.947,7.549c-1.24,1.043-1.5,3.585-1.523,4.085a3.211,3.211,0,0,1,1.77-2.618c3.251-2.349,5.272-4.681,8.17-8.127a1.135,1.135,0,0,1,1.415-.192,18.083,18.083,0,0,0,11.584,2.274,1.223,1.223,0,0,1,1.064.362c1.763,2.3,2.438,3.392,4.124,5.311.98,1.075,2.177,2.006,2.313,2.848A11.163,11.163,0,0,0,34.57,18.714Z" transform="translate(-6.026 -5.728)" fill="#171515" opacity="0.5"/>
      <path id="Path_477" data-name="Path 477" d="M34.458,19.084c-1.085-1.595-2.285-3.2-4.038-5.718a1,1,0,0,0-.969-.334,18.354,18.354,0,0,1-11.439-1.968c-.552-.448-1.491-1.172-1.238-4.08.09-.984-1.064-.767-1.359,0a7.374,7.374,0,0,0-.185,3.793c.119.369-.235.722-.284.785A43.7,43.7,0,0,1,7.64,19.444a5.806,5.806,0,0,0-1.606,3.75A3.438,3.438,0,0,1,7.813,20.73c3.895-2.867,5.269-4.819,8.167-8.265a1.116,1.116,0,0,1,1.4-.194,18.141,18.141,0,0,0,11.6,2.269,1.136,1.136,0,0,1,1.032.353C31.7,17.212,32.4,18.2,34.19,20.32c.951,1.089,2.153,1.99,2.292,2.844C36.416,21.875,35.24,20.238,34.458,19.084Z" transform="translate(-6.025 -5.77)" fill="#171515" opacity="0.667"/>
      <path id="Path_478" data-name="Path 478" d="M34.347,19.454c-1.118-1.63-2.372-3.119-4.067-5.7a.982.982,0,0,0-.969-.334,18.643,18.643,0,0,1-11.552-2.061c-.552-.448-1.469-1.218-1.206-4.255.081-.878-.751-.583-.954-.029a7.7,7.7,0,0,0-.053,3.845.692.692,0,0,1-.164.677,42.321,42.321,0,0,1-7.663,8.225,4.969,4.969,0,0,0-1.688,3.415,3.8,3.8,0,0,1,1.787-2.311c4.538-3.385,5.266-4.956,8.164-8.4a1.1,1.1,0,0,1,1.388-.2,18.2,18.2,0,0,0,11.617,2.264,1.055,1.055,0,0,1,1,.343,68.467,68.467,0,0,0,4.228,5.543c.92,1.1,2.129,1.974,2.27,2.839C36.391,21.86,35.109,20.568,34.347,19.454Z" transform="translate(-6.024 -5.812)" fill="#171515" opacity="0.833"/>
      <path id="Path_479" data-name="Path 479" d="M34.236,19.823c-1.151-1.665-2.46-3.034-4.1-5.678a.965.965,0,0,0-.969-.334A18.937,18.937,0,0,1,17.5,11.657c-.552-.448-1.447-1.263-1.173-4.43.073-.773-.438-.4-.55-.055a8.014,8.014,0,0,0,.078,3.9c.119.369,0,.5-.044.568A41.285,41.285,0,0,1,7.794,20.2a4.211,4.211,0,0,0-1.771,3.08,4.435,4.435,0,0,1,1.8-2.157c5.183-3.9,5.262-5.094,8.16-8.54a1.079,1.079,0,0,1,1.373-.2,18.263,18.263,0,0,0,11.634,2.259.98.98,0,0,1,.969.334,61.852,61.852,0,0,0,4.28,5.659c.89,1.12,2.1,1.958,2.249,2.835C36.366,21.844,34.978,20.9,34.236,19.823Z" transform="translate(-6.023 -5.854)" fill="#171515"/>
    </g>
    <g id="Group_270" data-name="Group 270" transform="translate(14.835 22.781)">
      <ellipse id="Ellipse_72" data-name="Ellipse 72" cx="2.848" cy="1.627" rx="2.848" ry="1.627" fill="url(#radial-gradient-9)"/>
      <path id="Path_480" data-name="Path 480" d="M25.638,33.224a4.359,4.359,0,0,1-4.481,0c-.235-.12-.391-.063-.391.161a2.7,2.7,0,0,0,5.262,0C26.028,33.16,25.873,33.1,25.638,33.224Z" transform="translate(-20.55 -30.589)" fill="url(#radial-gradient-10)"/>
    </g>
  </g>
</svg>
