<svg xmlns="http://www.w3.org/2000/svg" width="75.546" height="101.986" viewBox="0 0 75.546 101.986">
  <g id="icons8_male_user_2" transform="translate(-82 -55)">
    <path id="Path_69" data-name="Path 69" d="M33.689,38.306a8.9,8.9,0,0,1,0-17.806c7.415,0,8.9,2.032,8.9,5.307C42.592,31.148,38.191,38.306,33.689,38.306Z" transform="translate(113.064 85.493)" fill="#dff0fe"/>
    <path id="Path_70" data-name="Path 70" d="M35.078,23.777c7.014,0,7.014,1.817,7.014,3.418,0,4.661-3.932,10.614-7.014,10.614a7.016,7.016,0,0,1,0-14.032m0-3.777a10.792,10.792,0,1,0,0,21.584c5.96,0,10.792-8.428,10.792-14.388S41.038,20,35.078,20Z" transform="translate(111.676 84.104)" fill="#009eff"/>
    <path id="Path_71" data-name="Path 71" d="M19.4,38.309c-4.5,0-8.9-7.158-8.9-12.5,0-3.275,1.488-5.307,8.9-5.307a8.9,8.9,0,1,1,0,17.81Z" transform="translate(73.389 85.49)" fill="#dff0fe"/>
    <path id="Path_72" data-name="Path 72" d="M20.792,23.777a7.014,7.014,0,0,1,0,14.029c-3.082,0-7.014-5.949-7.014-10.614,0-1.6,0-3.415,7.014-3.415m0-3.777C14.831,20,10,21.235,10,27.2s4.831,14.391,10.792,14.391a10.793,10.793,0,0,0,0-21.587Z" transform="translate(72 84.104)" fill="#009eff"/>
    <g id="Group_54" data-name="Group 54" transform="translate(89.551 75.356)">
      <path id="Path_73" data-name="Path 73" d="M40.829,90.742a9.29,9.29,0,0,1-6.2-2.38l-.34-.3-.442-.113A28.274,28.274,0,0,1,12.5,60.524V25.4A12.526,12.526,0,0,1,25.01,12.889H56.645A12.527,12.527,0,0,1,69.159,25.4V60.524A28.274,28.274,0,0,1,47.81,87.946l-.442.113-.34.3A9.29,9.29,0,0,1,40.829,90.742Z" transform="translate(-10.608 -11)" fill="#fff"/>
      <path id="Path_74" data-name="Path 74" d="M58.036,16.166A10.638,10.638,0,0,1,68.661,26.792v35.12a26.4,26.4,0,0,1-19.931,25.6l-.874.222-.684.6a7.371,7.371,0,0,1-9.9,0l-.684-.6-.88-.223a26.394,26.394,0,0,1-19.928-25.6V26.792A10.638,10.638,0,0,1,26.405,16.166H58.036m0-3.777H26.4A14.4,14.4,0,0,0,12,26.792v35.12A30.2,30.2,0,0,0,34.772,91.167a11.149,11.149,0,0,0,14.894,0A30.2,30.2,0,0,0,72.439,61.912V26.792a14.4,14.4,0,0,0-14.4-14.4Z" transform="translate(-11.999 -12.389)" fill="#009eff"/>
    </g>
    <g id="Group_55" data-name="Group 55" transform="translate(82 55)">
      <path id="Path_75" data-name="Path 75" d="M74.716,67.936V54.715A18.334,18.334,0,0,0,62.285,36.887l-1.043-.3-.786.748c-.076.068-8.053,7.4-24.839,7.4-4.344,0-17.564,0-17.564,13.76v9.443h-.676C15.73,64.227,10.5,51.573,10.5,40.785,10.5,20.875,24.162,7.5,44.5,7.5c14.5,0,18.856,9.764,19.037,10.18l.491,1.145,1.25.008c7.842,0,17,5.454,17,20.831,0,9.908-5.315,24.148-6.939,28.273Z" transform="translate(-8.614 -5.611)" fill="#09f"/>
      <path id="Path_76" data-name="Path 76" d="M45.884,10.777c13.156,0,17.141,8.676,17.288,9.009l.971,2.323h2.516c6.969,0,15.109,4.96,15.109,18.943,0,5.8-1.915,13.213-3.777,19.049v-4a20.076,20.076,0,0,0-13.8-19.645L62.126,35.9l-1.56,1.443c-.306.283-7.638,6.893-23.555,6.893-12.911,0-19.457,5.265-19.457,15.649v1.186C15.7,55.7,13.777,48.584,13.777,42.17c0-18.777,12.9-31.393,32.107-31.393m0-3.777C23.9,7,10,22.037,10,42.17c0,13.337,7.554,29.043,7.554,29.043h3.777V59.881c0-10.078,7.645-11.872,15.676-11.872,17.866,0,26.146-7.921,26.146-7.921A16.286,16.286,0,0,1,74.213,56.1V71.213H77.99s7.554-18.01,7.554-30.161c0-17.062-10.867-22.72-18.886-22.72,0,0-4.733-11.332-20.775-11.332Z" transform="translate(-10 -7)" fill="#09f"/>
    </g>
  </g>
</svg>
