<svg id="icons8_new_message" xmlns="http://www.w3.org/2000/svg" width="40.266" height="36.605" viewBox="0 0 40.266 36.605">
  <path id="Path_387" data-name="Path 387" d="M33.114,33.284H7.491A5.49,5.49,0,0,1,2,27.793V9.491A5.49,5.49,0,0,1,7.491,4H33.114a5.49,5.49,0,0,1,5.491,5.491v18.3A5.49,5.49,0,0,1,33.114,33.284Z" transform="translate(-2 -4)" opacity="0.35"/>
  <path id="Path_388" data-name="Path 388" d="M38.605,8.1v3.624l-12.739,7.65a10.837,10.837,0,0,1-11.128,0L2,11.728V8.1A5.2,5.2,0,0,1,2.586,5.67l14.99,9a5.3,5.3,0,0,0,5.454,0l14.99-9A5.2,5.2,0,0,1,38.605,8.1Z" transform="translate(-2 -2.613)" fill="#006498"/>
  <path id="Path_389" data-name="Path 389" d="M29.557,20.406H25.9V16.745a2.745,2.745,0,0,0-5.491,0v3.661H16.745a2.745,2.745,0,0,0,0,5.491h3.661v3.661a2.745,2.745,0,0,0,5.491,0V25.9h3.661a2.745,2.745,0,0,0,0-5.491Z" transform="translate(7.963 4.303)" fill="#006498"/>
</svg>
