<svg id="icons8_edit_profile" xmlns="http://www.w3.org/2000/svg" width="42.621" height="41.083" viewBox="0 0 42.621 41.083">
  <path id="Path_374" data-name="Path 374" d="M33.818,15.89,24.5,25.211a3.476,3.476,0,0,0-.667.908H8.559A5.559,5.559,0,1,1,8.559,15H30.8A5.607,5.607,0,0,1,33.818,15.89Z" transform="translate(0.705 9.405)" fill="#006498"/>
  <circle id="Ellipse_51" data-name="Ellipse 51" cx="9.211" cy="9.211" r="9.211" transform="translate(10.697)" opacity="0.35"/>
  <path id="Path_375" data-name="Path 375" d="M7.979,14.979a9.116,9.116,0,0,0,2.279-5.417A1.405,1.405,0,0,0,8.7,8.009a9.093,9.093,0,0,0-5.417,2.279,9.121,9.121,0,0,0-2.279,5.417,1.405,1.405,0,0,0,1.553,1.553A9.116,9.116,0,0,0,7.979,14.979Z" transform="translate(-1 3.433)" opacity="0.35"/>
  <path id="Path_376" data-name="Path 376" d="M30.934,14.682a3.932,3.932,0,0,0-5.016.556L15.11,26.046A3.8,3.8,0,0,0,14,28.727v2.333a1.457,1.457,0,0,0,1.457,1.457H17.79a3.785,3.785,0,0,0,2.68-1.11l10.95-10.95A3.792,3.792,0,0,0,30.934,14.682Z" transform="translate(10.09 8.566)" opacity="0.35"/>
</svg>
