<svg id="instagram" xmlns="http://www.w3.org/2000/svg" width="40.4" height="40.4" viewBox="0 0 40.4 40.4">
  <path id="Path_232" data-name="Path 232" d="M20.2,0c-5.488,0-6.169.025-8.324.118a14.977,14.977,0,0,0-4.907.943A9.762,9.762,0,0,0,3.392,3.392,9.762,9.762,0,0,0,1.06,6.969a14.977,14.977,0,0,0-.943,4.907C.017,14.031,0,14.712,0,20.2s.025,6.169.118,8.324a14.977,14.977,0,0,0,.943,4.907,9.762,9.762,0,0,0,2.331,3.577,9.871,9.871,0,0,0,3.577,2.331,14.977,14.977,0,0,0,4.907.943c2.155.1,2.836.118,8.324.118s6.169-.025,8.324-.118a14.977,14.977,0,0,0,4.907-.943,10.349,10.349,0,0,0,5.908-5.908,14.977,14.977,0,0,0,.943-4.907c.1-2.155.118-2.836.118-8.324s-.025-6.169-.118-8.324a14.977,14.977,0,0,0-.943-4.907,9.871,9.871,0,0,0-2.331-3.577A9.762,9.762,0,0,0,33.431,1.06,14.977,14.977,0,0,0,28.524.118C26.369.017,25.688,0,20.2,0Zm0,3.636c5.4,0,6.035.025,8.164.118a11.127,11.127,0,0,1,3.745.7,6.439,6.439,0,0,1,2.331,1.507A6.161,6.161,0,0,1,35.947,8.29a11.127,11.127,0,0,1,.7,3.745c.093,2.129.118,2.769.118,8.164s-.025,6.035-.126,8.164a11.288,11.288,0,0,1-.707,3.745,6.459,6.459,0,0,1-1.515,2.331,6.262,6.262,0,0,1-2.323,1.507,11.255,11.255,0,0,1-3.762.7c-2.146.093-2.777.118-8.181.118s-6.035-.025-8.181-.126a11.418,11.418,0,0,1-3.762-.707,6.287,6.287,0,0,1-2.323-1.515,6.18,6.18,0,0,1-1.515-2.323,11.418,11.418,0,0,1-.707-3.762c-.076-2.121-.1-2.777-.1-8.156s.025-6.035.1-8.181a11.418,11.418,0,0,1,.707-3.762A5.988,5.988,0,0,1,5.883,5.908,5.988,5.988,0,0,1,8.206,4.393a11.224,11.224,0,0,1,3.737-.707c2.146-.076,2.777-.1,8.181-.1Zm0,6.195A10.369,10.369,0,1,0,30.569,20.2,10.368,10.368,0,0,0,20.2,9.831Zm0,17.1A6.733,6.733,0,1,1,26.933,20.2,6.731,6.731,0,0,1,20.2,26.933ZM33.406,9.418a2.424,2.424,0,1,1-2.424-2.424A2.425,2.425,0,0,1,33.406,9.418Z" fill="#f97ed4"/>
  <path id="Path_233" data-name="Path 233" d="M0,0H40.4V40.4H0Z" fill="none"/>
</svg>
