<svg xmlns="http://www.w3.org/2000/svg" width="57.537" height="57.681" viewBox="0 0 57.537 57.681">
  <g id="messages-1" transform="translate(1.25 1.25)">
    <path id="Path_357" data-name="Path 357" d="M46.018,19.194V30.213a16.707,16.707,0,0,1-.11,2.066c-.634,7.437-5.013,11.128-13.084,11.128h-1.1a2.218,2.218,0,0,0-1.763.881L26.653,48.7a3.117,3.117,0,0,1-5.289,0l-3.306-4.407a2.544,2.544,0,0,0-1.763-.881h-1.1C6.407,43.407,2,41.231,2,30.213V19.194C2,11.124,5.719,6.744,13.129,6.11A16.706,16.706,0,0,1,15.194,6H32.824Q46,6,46.018,19.194Z" transform="translate(-2 5.018)" fill="none" stroke="#3fb2ff" stroke-linecap="round" stroke-linejoin="round" stroke-miterlimit="10" stroke-width="2.5"/>
    <path id="Path_358" data-name="Path 358" d="M49.948,15.194V26.213q0,12.148-11.129,13.084a16.706,16.706,0,0,0,.11-2.066V26.213q0-13.181-13.194-13.194H8.106a16.706,16.706,0,0,0-2.066.11C6.674,5.719,11.053,2,19.124,2H36.754Q49.934,2,49.948,15.194Z" transform="translate(5.089 -2)" fill="none" stroke="#3fb2ff" stroke-linecap="round" stroke-linejoin="round" stroke-miterlimit="10" stroke-width="2.5"/>
    <path id="Path_359" data-name="Path 359" d="M13.5,13.25h.025" transform="translate(18.17 17.739)" fill="none" stroke="#3fb2ff" stroke-linecap="round" stroke-linejoin="round" stroke-width="2.5"/>
    <path id="Path_360" data-name="Path 360" d="M10,13.25h.025" transform="translate(12.029 17.739)" fill="none" stroke="#3fb2ff" stroke-linecap="round" stroke-linejoin="round" stroke-width="2.5"/>
    <path id="Path_361" data-name="Path 361" d="M6.5,13.25H6.52" transform="translate(5.888 17.739)" fill="none" stroke="#3fb2ff" stroke-linecap="round" stroke-linejoin="round" stroke-width="2.5"/>
  </g>
</svg>
