<svg xmlns="http://www.w3.org/2000/svg" width="42.5" height="33.385" viewBox="0 0 42.5 33.385">
  <path id="Path_255" data-name="Path 255" d="M41.75,9.058V30.327a4.558,4.558,0,0,1-4.558,4.558H6.808A4.558,4.558,0,0,1,2.25,30.327V9.058m39.5,0A4.558,4.558,0,0,0,37.192,4.5H6.808A4.558,4.558,0,0,0,2.25,9.058m39.5,0V9.55a4.558,4.558,0,0,1-2.168,3.881L24.39,22.779a4.558,4.558,0,0,1-4.781,0L4.417,13.433A4.558,4.558,0,0,1,2.25,9.552V9.058" transform="translate(-0.75 -3)" fill="none" stroke="#0077c5" stroke-linecap="round" stroke-linejoin="round" stroke-width="3"/>
</svg>
