<svg xmlns="http://www.w3.org/2000/svg" width="30.1" height="30.1" viewBox="0 0 27.1 27.1">
  <path id="Path_235" data-name="Path 235" d="M2.25,8.158A19.693,19.693,0,0,0,21.942,27.85H24.9A2.954,2.954,0,0,0,27.85,24.9V23.1a1.476,1.476,0,0,0-1.119-1.432l-5.807-1.452a1.476,1.476,0,0,0-1.54.547l-1.273,1.7a1.393,1.393,0,0,1-1.589.5,15.8,15.8,0,0,1-9.378-9.378,1.393,1.393,0,0,1,.5-1.589l1.7-1.273a1.475,1.475,0,0,0,.547-1.54L8.437,3.369A1.477,1.477,0,0,0,7.005,2.25H5.2A2.954,2.954,0,0,0,2.25,5.2Z" transform="translate(-1.5 -1.5)" fill="none" stroke="#d19f0d" stroke-linecap="round" stroke-linejoin="round" stroke-width="1.5"/>
</svg>
