<svg xmlns="http://www.w3.org/2000/svg" width="41.5" height="30.654" viewBox="0 0 48.5 37.654">
  <path id="Path_234" data-name="Path 234" d="M49.25,9.923V35.231a5.423,5.423,0,0,1-5.423,5.423H7.673A5.423,5.423,0,0,1,2.25,35.231V9.923m47,0A5.423,5.423,0,0,0,43.827,4.5H7.673A5.423,5.423,0,0,0,2.25,9.923m47,0v.586a5.423,5.423,0,0,1-2.579,4.618L28.594,26.25a5.423,5.423,0,0,1-5.688,0L4.829,15.129A5.423,5.423,0,0,1,2.25,10.511V9.923" transform="translate(-1.5 -3.75)" fill="none" stroke="#d9d9d9" stroke-linecap="round" stroke-linejoin="round" stroke-width="1.5"/>
</svg>
