<svg xmlns="http://www.w3.org/2000/svg" width="30" height="30" viewBox="0 0 42 42">
  <g id="sun-1" transform="translate(-1 -1)">
    <path id="Path_20" data-name="Path 20" d="M18.616,32.482A13.866,13.866,0,1,1,32.482,18.616,13.876,13.876,0,0,1,18.616,32.482Zm0-24.863a11,11,0,1,0,11,11A11.011,11.011,0,0,0,18.616,7.619Z" transform="translate(3.422 3.422)" fill="#f9c416"/>
    <path id="Path_21" data-name="Path 21" d="M22.038,43a1.854,1.854,0,0,1-1.913-1.836v-.153a1.913,1.913,0,0,1,3.825,0A1.985,1.985,0,0,1,22.038,43Zm13.656-5.393a1.959,1.959,0,0,1-1.358-.555l-.249-.249a1.907,1.907,0,0,1,2.7-2.7l.249.249a1.9,1.9,0,0,1,0,2.7A1.881,1.881,0,0,1,35.694,37.607Zm-27.311,0a1.959,1.959,0,0,1-1.358-.555,1.9,1.9,0,0,1,0-2.7l.249-.249a1.907,1.907,0,0,1,2.7,2.7l-.249.249A1.915,1.915,0,0,1,8.383,37.607ZM41.164,23.951h-.153a1.913,1.913,0,0,1,0-3.825A1.985,1.985,0,0,1,43,22.038,1.854,1.854,0,0,1,41.164,23.951Zm-38.1,0H2.913a1.913,1.913,0,1,1,0-3.825A1.985,1.985,0,0,1,4.9,22.038,1.854,1.854,0,0,1,3.066,23.951Zm32.38-13.407a1.959,1.959,0,0,1-1.358-.555,1.9,1.9,0,0,1,0-2.7l.249-.249a1.907,1.907,0,0,1,2.7,2.7l-.249.249A1.881,1.881,0,0,1,35.445,10.544Zm-26.814,0a1.959,1.959,0,0,1-1.358-.555l-.249-.268a1.907,1.907,0,0,1,2.7-2.7l.249.249a1.9,1.9,0,0,1,0,2.7A1.856,1.856,0,0,1,8.631,10.544ZM22.038,4.9a1.854,1.854,0,0,1-1.913-1.836V2.913a1.913,1.913,0,1,1,3.825,0A1.985,1.985,0,0,1,22.038,4.9Z" transform="translate(0 0)" fill="#f9c416"/>
  </g>
</svg>
